<svg xmlns="http://www.w3.org/2000/svg" width="180.5" height="158.091" viewBox="0 0 180.5 158.091"><defs><style>.a{fill:#e5e5e5;}.b,.e{fill:#fff;}.c{fill:#e6e6e6;}.d{fill:#3c50ff;}.e{isolation:isolate;}</style></defs><path class="a" d="M815.392,351.443h-180.5V239.069h180.5Zm-176.3-4.2h172.1V243.269h-172.1Z" transform="translate(-634.892 -193.351)"/><rect class="b" width="176.301" height="108.174" transform="translate(2.1 47.818)"/><path class="c" d="M815.283,270.577v-6.642H790.826V243.16h-6.642v20.774H740.643V243.16H734v20.774H666.845V243.16H660.2v20.774H638.983v6.642H660.2v25.829H638.983v6.642H660.2v27.674H638.983v6.642H696v13.97h6.642v-13.97H734v13.97h6.642v-13.97h74.64v-6.642h-74.64V303.048h74.64v-6.642H790.826V270.577Zm-81.281,0v8.118H666.845v-8.118Zm-67.156,14.76H734v11.07H666.845Zm0,45.386V303.048H696v27.674Zm67.156,0H702.637V303.048H734Zm50.183-34.316H740.643V270.577h43.541Z" transform="translate(-636.883 -195.343)"/><path class="d" d="M832.6,181.848c0,17.589-31.848,56.772-31.848,56.772S768.9,199.437,768.9,181.848a31.848,31.848,0,0,1,63.7,0Z" transform="translate(-700.117 -150)"/><path class="e" d="M831.7,195.544a14.559,14.559,0,1,1-14.559-14.559A14.559,14.559,0,0,1,831.7,195.544Z" transform="translate(-716.511 -165.081)"/><ellipse class="d" cx="8.585" cy="8.585" rx="8.585" ry="8.585" transform="translate(92.049 94.436)"/></svg>