<svg xmlns="http://www.w3.org/2000/svg" width="229.834" height="162.467" viewBox="0 0 229.834 162.467"><defs><style>.a{fill:#e4e4e4;}.b{fill:#f2f2f2;}.c{fill:#fff;}.d{fill:#a0616a;}.e{fill:#3c50ff;}.f{fill:#3f3d56;}.g{fill:#2f2e41;}.h{fill:#cacaca;}.i{fill:#9f616a;}</style></defs><path class="a" d="M516.747,390.16a11.154,11.154,0,0,1-1.032-.859l.447-.475a10.512,10.512,0,0,0,.971.809Z" transform="translate(-419.108 -320.882)"/><path class="a" d="M501.483,323.827a10.987,10.987,0,0,1-1.171-2.574l.623-.191a10.336,10.336,0,0,0,1.1,2.422Zm-1.65-5.361q-.01-.231-.01-.463a11.008,11.008,0,0,1,.255-2.355l.636.139a10.362,10.362,0,0,0-.24,2.215q0,.218.009.435Zm1.783-5.18-.579-.3a11.117,11.117,0,0,1,.927-1.5,9.011,9.011,0,0,1,.691-.83l.475.446a8.368,8.368,0,0,0-.641.77,10.462,10.462,0,0,0-.873,1.408Zm3.605-3.78-.308-.574a8.872,8.872,0,0,1,2.69-.924l.11.642a8.217,8.217,0,0,0-2.493.856Zm7.635-.071a8.143,8.143,0,0,0-2.507-.811l.1-.644a8.8,8.8,0,0,1,2.707.876Z" transform="translate(-406.668 -257.597)"/><path class="a" d="M570.237,321.39a6.479,6.479,0,0,0-.737-1l.484-.436a7.129,7.129,0,0,1,.812,1.1Z" transform="translate(-461.208 -266.974)"/><path class="a" d="M455.995,289.489l-.525-.386c.261-.354.535-.705.817-1.042l.5.418C456.514,288.8,456.248,289.145,455.995,289.489Z" transform="translate(-371.95 -242.006)"/><path class="a" d="M497.82,261.388a16.3,16.3,0,0,0-1.659-1.957l.462-.459a16.961,16.961,0,0,1,1.726,2.036ZM468.1,259.26l-.444-.477a21.118,21.118,0,0,1,2.058-1.685l.38.529A20.454,20.454,0,0,0,468.1,259.26Zm26.119-1.5a20.831,20.831,0,0,0-2.168-1.394l.317-.569a21.481,21.481,0,0,1,2.236,1.437Zm-21.941-1.5-.31-.573a21.22,21.22,0,0,1,2.413-1.117l.236.607A20.572,20.572,0,0,0,472.274,256.258Zm17.448-1.006a20.446,20.446,0,0,0-2.446-.809l.165-.63a21.113,21.113,0,0,1,2.524.835Zm-12.653-.858-.158-.632a21.4,21.4,0,0,1,2.614-.484l.078.647A20.759,20.759,0,0,0,477.069,254.394Zm7.678-.445a20.622,20.622,0,0,0-2.571-.173l0-.652a21.293,21.293,0,0,1,2.653.179Z" transform="translate(-381.486 -214.659)"/><path class="a" d="M613.183,301.392c-.16-.393-.338-.784-.528-1.163l.582-.293c.2.394.383.8.549,1.209Z" transform="translate(-494.989 -251.302)"/><path class="a" d="M622.5,479.042l-.224-.612c.4-.147.806-.3,1.2-.467l.248.6C623.325,478.732,622.912,478.893,622.5,479.042Z" transform="translate(-502.522 -390.655)"/><path class="a" d="M505.729,469.781l-.024-.651c.846-.031,1.7-.1,2.54-.193l.075.647C507.463,469.684,506.591,469.75,505.729,469.781Zm-2.6-.008c-.863-.037-1.735-.108-2.59-.212l.079-.647c.838.1,1.692.172,2.539.208Zm7.758-.588-.125-.64c.83-.162,1.664-.36,2.479-.587l.175.628C512.585,468.818,511.735,469.02,510.888,469.186Zm-12.913-.041c-.846-.172-1.7-.38-2.524-.618l.18-.626c.812.234,1.645.438,2.474.606Zm-4.991-1.435c-.808-.3-1.613-.644-2.394-1.011l.277-.59c.765.36,1.555.693,2.347.991Zm-4.7-2.208c-.747-.426-1.489-.889-2.2-1.375l.366-.539c.7.477,1.429.93,2.161,1.348Z" transform="translate(-395.909 -379.403)"/><path class="a" d="M472.821,454.072c-.34-.278-.677-.567-1-.859l.437-.484c.316.286.645.568.977.839Z" transform="translate(-384.748 -370.902)"/><path class="a" d="M392.174,152.037l-.335-.559c.374-.224.756-.446,1.134-.659l.32.567C392.92,151.6,392.543,151.816,392.174,152.037Z" transform="translate(-322.142 -134.577)"/><path class="a" d="M467.347,137.074c-.558-.65-1.146-1.292-1.747-1.907l.466-.455c.61.625,1.208,1.277,1.775,1.938Zm-3.612-3.7c-.637-.573-1.3-1.135-1.976-1.669l.4-.511c.685.542,1.361,1.113,2.008,1.7Zm-4.053-3.213c-.7-.495-1.43-.977-2.156-1.434l.347-.552c.735.462,1.469.951,2.183,1.452Zm-4.381-2.756c-.749-.42-1.52-.826-2.29-1.207l.289-.584c.78.386,1.561.8,2.32,1.223Zm-47.282-1.1-.291-.583c.779-.389,1.579-.762,2.378-1.11l.26.6C409.578,125.556,408.788,125.924,408.018,126.308Zm42.643-1.2c-.789-.341-1.6-.666-2.4-.966l.227-.611c.815.3,1.634.633,2.433.978Zm-37.9-.873-.229-.61c.814-.306,1.648-.6,2.478-.861l.2.621c-.82.262-1.643.548-2.447.85Zm33.045-.933c-.819-.258-1.657-.5-2.489-.713l.163-.631c.843.218,1.692.461,2.521.722Zm-28.111-.641-.166-.63c.841-.222,1.7-.425,2.553-.6l.134.638c-.842.177-1.691.378-2.521.6Zm23.1-.656c-.841-.172-1.7-.325-2.549-.454l.1-.644c.862.13,1.731.285,2.582.459Zm-18.031-.407-.1-.644c.859-.135,1.734-.25,2.6-.341l.068.648C424.481,121.355,423.617,121.468,422.769,121.6Zm12.912-.369c-.854-.085-1.724-.149-2.583-.19l.031-.651c.87.042,1.751.106,2.616.193Zm-7.761-.174-.035-.651c.87-.047,1.752-.072,2.622-.075l0,.652C429.65,120.987,428.778,121.012,427.919,121.058Z" transform="translate(-334.579 -110.714)"/><path class="a" d="M690.441,206.372c-.247-.352-.5-.7-.76-1.045l.521-.392c.261.348.521.705.772,1.063Z" transform="translate(-555.283 -176.938)"/><path class="a" d="M551.9,693.728q-.648-.083-1.3-.177l.094-.645q.642.093,1.285.176Z" transform="translate(-446.416 -558.905)"/><path class="a" d="M369.085,590.943c-.872-.157-1.754-.33-2.621-.516l.137-.637c.86.185,1.735.357,2.6.512Zm-5.223-1.12c-.862-.215-1.73-.448-2.58-.691l.179-.626c.843.241,1.7.472,2.559.686Zm-5.136-1.469c-.845-.273-1.7-.563-2.528-.864l.221-.613c.825.3,1.669.586,2.507.857Zm-5.025-1.812c-.822-.328-1.651-.675-2.464-1.032l.262-.6c.806.354,1.628.7,2.444,1.023Zm-4.892-2.146c-.8-.383-1.6-.785-2.389-1.195l.3-.578c.779.406,1.576.8,2.369,1.185Zm-4.736-2.469c-.769-.434-1.544-.889-2.3-1.352l.339-.556c.753.459,1.522.91,2.285,1.341Zm-4.561-2.779c-.741-.486-1.484-.991-2.209-1.5l.375-.533c.719.506,1.456,1.008,2.191,1.489Zm-4.368-3.077c-.709-.538-1.414-1.1-2.1-1.661l.415-.5c.676.558,1.374,1.111,2.075,1.644Zm-4.122-3.406c-.66-.593-1.317-1.209-1.952-1.829l.455-.466c.628.613,1.278,1.223,1.932,1.81Zm-3.825-3.737c-.608-.647-1.211-1.315-1.792-1.986l.493-.426c.574.664,1.171,1.326,1.773,1.966Zm-3.5-4.045c-.552-.7-1.1-1.412-1.618-2.13l.527-.383c.516.71,1.055,1.419,1.6,2.108Z" transform="translate(-267.537 -456.725)"/><path class="a" d="M312.443,548.757q-.363-.546-.713-1.1l.55-.349q.347.546.706,1.087Z" transform="translate(-259.435 -444.937)"/><path class="b" d="M840.256,131.81l-8.123,7.478,6.455-10.832c-5.086-9.223-13.4-17.194-13.4-17.194s-17.257,16.533-17.257,29.53,7.726,17.534,17.257,17.534,17.257-4.538,17.257-17.534A22.8,22.8,0,0,0,840.256,131.81Z" transform="translate(-647.842 -103.614)"/><path class="c" d="M891.875,137.1v.641c-.038,7.446-1.294,13.256-3.758,17.347-.035.06-.073.117-.108.178l-.276-.168-.263-.165c2.734-4.418,3.7-10.662,3.736-17.157,0-.209.006-.422,0-.634-.01-2.75-.177-5.531-.447-8.233-.019-.209-.041-.422-.063-.634-.374-3.565-.913-6.971-1.465-9.929-.038-.209-.079-.419-.12-.625-.955-5-1.928-8.629-2.15-9.432-.025-.1-.041-.152-.044-.165l.3-.086,0,0,.3-.086c0,.013.057.193.146.53.339,1.256,1.221,4.665,2.087,9.162.038.2.079.412.117.622.45,2.4.891,5.084,1.24,7.9q.133,1.061.238,2.093c.025.212.047.425.067.634Q891.859,133.266,891.875,137.1Z" transform="translate(-709.673 -101.017)"/><path class="c" d="M863.26,147.188c-.212.029-.428.057-.647.079a17.5,17.5,0,0,1-1.789.092,17.018,17.018,0,0,1-7.357-1.662l-.4.507a17.649,17.649,0,0,0,7.76,1.789,18.091,18.091,0,0,0,1.909-.1c.216-.022.431-.051.644-.082a17.5,17.5,0,0,0,5.058-1.532l-.4-.514A16.96,16.96,0,0,1,863.26,147.188Z" transform="translate(-683.173 -130.569)"/><path class="c" d="M852.285,175.068q-.328.019-.656.019c-.067,0-.136,0-.2,0a17.109,17.109,0,0,1-14.043-7.335c-.127.187-.254.374-.377.565a17.744,17.744,0,0,0,14.42,7.405c.089,0,.178,0,.266,0,.222,0,.441-.01.66-.019a17.65,17.65,0,0,0,9.4-3.3c-.1-.187-.2-.374-.308-.561A16.991,16.991,0,0,1,852.285,175.068Z" transform="translate(-670.603 -147.835)"/><path class="c" d="M843.983,197.867c-.222.019-.444.032-.666.041-.238.01-.476.016-.714.016a17.155,17.155,0,0,1-16.447-12.343c-.143.257-.285.511-.422.767a17.783,17.783,0,0,0,16.868,12.21c.238,0,.476,0,.71-.016s.447-.019.669-.035a17.731,17.731,0,0,0,11.7-5.712c-.067-.235-.143-.466-.219-.7A17.1,17.1,0,0,1,843.983,197.867Z" transform="translate(-661.781 -161.788)"/><path class="b" d="M106.425,228.066l5.3,9.687-8.955-8.877c-10.177,2.711-19.919,8.861-19.919,8.861s11.883,20.735,24.5,23.87,18.88-3.269,21.179-12.518-.241-17.842-12.854-20.977A22.8,22.8,0,0,0,106.425,228.066Z" transform="translate(-80.275 -194.692)"/><path class="c" d="M109.536,273.811l.622.155c7.217,1.833,12.553,4.453,15.929,7.831.05.048.1.1.146.148l-.23.227-.224.216c-3.628-3.719-9.455-6.163-15.749-7.764-.2-.054-.408-.108-.615-.156-2.671-.654-5.41-1.162-8.1-1.552-.208-.032-.419-.062-.631-.091-3.55-.5-6.985-.795-9.99-.973-.212-.014-.425-.024-.635-.034-5.087-.281-8.839-.21-9.672-.188-.1,0-.158,0-.171,0l-.01-.313,0,0L80.2,271c.013,0,.2-.009.549-.014,1.3-.026,4.822-.06,9.395.185.206.012.419.023.632.036,2.438.142,5.149.361,7.966.7q1.062.127,2.089.274c.212.027.424.056.632.088Q105.816,272.9,109.536,273.811Z" transform="translate(-78.2 -228.626)"/><path class="c" d="M112.249,253.012c-.024.213-.048.429-.079.647a17.5,17.5,0,0,1-.342,1.758,17.019,17.019,0,0,1-3.387,6.739l.4.513a17.649,17.649,0,0,0,3.608-7.1,18.1,18.1,0,0,0,.362-1.877c.03-.215.055-.431.075-.645a17.5,17.5,0,0,0-.266-5.278l-.595.264a16.96,16.96,0,0,1,.23,4.978Z" transform="translate(-100.307 -210.467)"/><path class="c" d="M136.638,241.131q-.061.323-.14.642c-.013.065-.03.133-.046.2a17.109,17.109,0,0,1-10.506,11.859c.151.168.3.336.457.5a17.744,17.744,0,0,0,10.665-12.208c.021-.086.043-.172.061-.259.05-.216.1-.43.141-.645a17.65,17.65,0,0,0-.933-9.921c-.206.053-.412.107-.619.163A16.991,16.991,0,0,1,136.638,241.131Z" transform="translate(-114.01 -197.574)"/><path class="c" d="M156.8,238.729c-.035.22-.076.439-.121.656-.048.233-.1.465-.157.7a17.155,17.155,0,0,1-15.945,12.984c.215.2.427.4.643.594a17.783,17.783,0,0,0,15.918-13.425c.057-.231.112-.462.156-.693s.089-.439.128-.658a17.731,17.731,0,0,0-2.72-12.734c-.244.008-.487.026-.733.043A17.1,17.1,0,0,1,156.8,238.729Z" transform="translate(-125.461 -193.544)"/><path class="d" d="M252.526,459.058l-1.985-2.021,2.434-3.721,4.166-6.934a1.621,1.621,0,1,1,1.98.868l-3.438,7.4Z" transform="translate(-211.539 -364.139)"/><path class="e" d="M234.943,507.541a2.237,2.237,0,0,1-2.207,1,2.091,2.091,0,0,1-1.757-1.473,1.994,1.994,0,0,1,.22-1.665,51.691,51.691,0,0,1,3.8-5.224l.039-.047,4.131.895Z" transform="translate(-196.155 -408.007)"/><path class="f" d="M237.317,94.9l-.486.15-4.1-13.308a8.059,8.059,0,0,0-10.074-5.331h0l-28.2,8.681a8.059,8.059,0,0,0-5.331,10.074h0l22.479,73.011a8.059,8.059,0,0,0,10.074,5.331h0l28.2-8.681a8.059,8.059,0,0,0,5.331-10.074h0l-15.465-50.229.486-.15Z" transform="translate(-163.189 -76.055)"/><path class="c" d="M231.633,85.526l-3.68,1.133a2.859,2.859,0,0,1-1.371,4.544l-16.153,4.973a2.859,2.859,0,0,1-3.689-2.986L203.3,94.248a6.019,6.019,0,0,0-3.981,7.523l22.446,72.9a6.019,6.019,0,0,0,7.523,3.981h0l28.331-8.723a6.019,6.019,0,0,0,3.981-7.523h0l-22.446-72.9a6.019,6.019,0,0,0-7.523-3.981Z" transform="translate(-171.235 -83.259)"/><path class="f" d="M620.827,343.946l-66.142-23.776a6.291,6.291,0,0,1-3.788-8.039l34.48-95.921a6.291,6.291,0,0,1,8.039-3.788L659.559,236.2a6.291,6.291,0,0,1,3.788,8.039l-34.48,95.921a6.291,6.291,0,0,1-8.039,3.788Z" transform="translate(-446.358 -182.51)"/><path class="c" d="M637.13,354.581l-66.375-23.859a1.939,1.939,0,0,1-1.168-2.478L604.3,231.688a1.939,1.939,0,0,1,2.478-1.168l66.375,23.859a1.939,1.939,0,0,1,1.168,2.478l-34.708,96.556A1.939,1.939,0,0,1,637.13,354.581Z" transform="translate(-461.188 -196.876)"/><circle class="c" cx="0.535" cy="0.535" r="0.535" transform="translate(178.693 42.987)"/><path class="e" d="M14.435,0A14.435,14.435,0,1,1,0,14.435,14.435,14.435,0,0,1,14.435,0Z" transform="translate(38.736 47.927) rotate(-45)"/><path class="c" d="M253.5,197.826l-7.145-4.847.624-.919,5.915,4.013,4.275-13.374,1.057.338Z" transform="translate(-192.838 -143.011)"/><circle class="e" cx="18.283" cy="18.283" r="18.283" transform="translate(134.961 94.415) rotate(-45)"/><path class="c" d="M710.529,430.238,707.9,419.622l1.366-.337,2.174,8.788,15.351-8.977.71,1.214Z" transform="translate(-554.122 -328.055)"/><path class="d" d="M193.974,651.935h2.468l1.174-9.52h-3.643Z" transform="translate(-151.836 -502.86)"/><path class="g" d="M262.078,758.584h4.861a3.1,3.1,0,0,1,3.1,3.1v.1h-7.958Z" transform="translate(-220.569 -610.315)"/><path class="d" d="M105.51,647.4l2.44.369,2.584-9.237-3.2-.544Z" transform="translate(-82.59 -499.397)"/><path class="g" d="M172.477,753.275l4.806.726h0a3.1,3.1,0,0,1,2.6,3.526l-.015.1L172,756.437Z" transform="translate(-150.059 -606.16)"/><path class="g" d="M187.909,551.2l5.74-1.25,3.219,9.2.1,35.533-4.685-.029-1.958-28.759-12.482,26.574-5.033-.6,10.972-28.487s-.6-5.033,1.309-7.549l-.4-2.617Z" transform="translate(-150.693 -447)"/><path class="e" d="M217.119,508.991a2.133,2.133,0,0,1,.588-2.251l1.213-1.1,3.42-.576,2.139-.389,5.071,12.659-9.982,1.137c-.733-.158-1.025-.559-.6-1.356Z" transform="translate(-185.291 -411.562)"/><path class="d" d="M272.118,485.24l-.286-2.819,4.226-1.383,7.587-2.808a1.621,1.621,0,1,1,1,1.916l-7.312,3.628Z" transform="translate(-228.205 -389.907)"/><path class="e" d="M241.342,504.53a2.237,2.237,0,0,1-2.347-.6,2.093,2.093,0,0,1-.451-2.248,1.994,1.994,0,0,1,1.212-1.162,51.682,51.682,0,0,1,6.233-1.7l.06-.012,2.664,3.281Z" transform="translate(-202.03 -406.971)"/><ellipse class="d" cx="3.754" cy="3.754" rx="3.754" ry="3.754" transform="translate(31.794 84.778)"/><path class="g" d="M211.573,472.454a14.368,14.368,0,0,1-1.739-.106l-.082-.01-.6-3.283a5.539,5.539,0,0,1,4.139-6.386.515.515,0,0,1,.513.159l.144-.05a4.453,4.453,0,0,1,5.671,2.739l.036.1-.962.336a2.137,2.137,0,0,0-1.128,3.118l.984,1.638-.1.053a15.211,15.211,0,0,1-6.866,1.691Z" transform="translate(-179.065 -378.573)"/><path class="h" d="M153.983,773.379H71.217a.217.217,0,1,1,0-.434h82.766a.217.217,0,1,1,0,.434Z" transform="translate(-71 -621.557)"/><path class="h" d="M828.983,822.379H746.217a.217.217,0,1,1,0-.434h82.766a.217.217,0,1,1,0,.434Z" transform="translate(-599.367 -659.912)"/><path class="i" d="M904.167,563.169a1.637,1.637,0,0,0,0-2.511l-1.218-21.424-3.473.785,2.3,20.923a1.646,1.646,0,0,0,2.395,2.226Z" transform="translate(-719.503 -438.616)"/><path class="i" d="M983.715,575.909a1.637,1.637,0,0,1-.091-2.509l.441-21.454,3.5.659L986.028,573.6a1.646,1.646,0,0,1-2.313,2.311Z" transform="translate(-784.947 -448.566)"/><path class="i" d="M923.516,710.071h2.725l.777-6.357h-3.5Z" transform="translate(-722.896 -550.843)"/><path class="g" d="M991.317,804.937h5.367a3.42,3.42,0,0,1,3.42,3.42v.111h-8.787Z" transform="translate(-791.393 -646.599)"/><path class="i" d="M845.238,695.1h2.725l.777-10.511h-3.5Z" transform="translate(-661.623 -535.876)"/><path class="g" d="M913.04,804.937h5.367a3.42,3.42,0,0,1,3.42,3.42v.111H913.04Z" transform="translate(-730.12 -646.599)"/><circle class="i" cx="4.458" cy="4.458" r="4.458" transform="translate(190.134 82.459)"/><path class="a" d="M983.336,523.522s1.982.165,2.147,1.156a30.615,30.615,0,0,1,0,3.963s1.321,3.963,0,4.954-4.788,1.156-4.788,1.156Z" transform="translate(-783.077 -426.317)"/><path class="g" d="M908.78,626.9l-1.816,2.972s.661,13.044.826,13.375a.993.993,0,0,1,.165.66v1.816l.5,15.851s-1.321.661.33,1.156,3.8.66,4.128-.991.346-15.407.33-15.852l.165-.66,2.642-9.742,6.109,13.54,3.633,15.191s5.5.635,4.507-1.512-3.351-18.138-3.351-18.138a17.138,17.138,0,0,1-.5-1.981c0-.33-.165-.5-.165-.826s-.165-1.321-.165-1.321l-1.156-10.4Z" transform="translate(-725.364 -507.234)"/><path class="a" d="M899.925,510.583s-1.981-.165-2.477,1.486-4.623,7.926-3.8,8.586a37.811,37.811,0,0,0,7.265,2.807C901.081,523.3,899.925,510.583,899.925,510.583Z" transform="translate(-714.857 -416.185)"/><path class="g" d="M953.608,450.556a3.724,3.724,0,0,0-.988-1.874,3.076,3.076,0,0,0-1.971-.776,6.119,6.119,0,0,0-5.519-.313,1.009,1.009,0,0,0-.44-.448l-.159,1.375-.614-.462-.03.814-.563-.484a2.348,2.348,0,0,0,1.664,2.121,7.343,7.343,0,0,0,2.857.222,1.655,1.655,0,0,1,1.335.336,2.1,2.1,0,0,1,.28,1.428c.012.7.73.357,1.09.957a1.359,1.359,0,0,1,.279.687,1.606,1.606,0,0,1-.242.637c-.265.548-.793,2.252-.541,2.806l1.4-.782S954.513,453.927,953.608,450.556Z" transform="translate(-753.824 -366.481)"/><path class="a" d="M927.86,514.441s3.3-8.421,3.137-9.082-4.285-3.371-4.285-3.371l-.456-.057a.749.749,0,0,0,.045-.181l.071-.646a.761.761,0,0,0-.674-.839l-5.235-.574a.761.761,0,0,0-.839.674l-.061.559c-.276-.068-.289-.1-.289-.1s-4.623.734-5.779,1.064-.165,12.879-.165,12.879-.826,11.558-1.321,11.889,0,.165-.5,1.486c-.065.174.847-.8,1.238-.578,2.576,1.453,13.024,4.849,15.6,4.706.825-8.609-.826-11.393-.826-11.393Z" transform="translate(-728.922 -407.659)"/></svg>