<svg xmlns="http://www.w3.org/2000/svg" width="48.43" height="24.934" viewBox="0 0 48.43 24.934"><defs><style>.a{fill:#3c50ff;}</style></defs><path class="a" d="M490.766,482.891l-2.427,1.168-19.6,9.45-1.73.828a.966.966,0,0,1-1.307-.507.948.948,0,0,1-.069-.358v-5.582a.966.966,0,0,0-.959-.966H443.841a.966.966,0,0,1-.966-.959v-7.882a.966.966,0,0,1,.966-.966h20.833a.966.966,0,0,0,.959-.959v-5.706a.948.948,0,0,1,.069-.358.966.966,0,0,1,1.31-.5l1.727.841,19.6,9.549,2.431,1.18a.966.966,0,0,1,0,1.731Z" transform="translate(-442.875 -469.496)"/></svg>