<svg xmlns="http://www.w3.org/2000/svg" width="1438.999" height="1706.501" viewBox="0 0 1438.999 1706.501"><defs><style>.a{fill:#fff;}.b{fill:#41ebd7;}.c{fill:#2aebd7;}.d{fill:#3c50ff;}</style></defs><g transform="translate(-1 -245.499)"><path class="a" d="M-1990-8100.5V-9807l181.609,314.62a83.623,83.623,0,0,0,72.422,41.812H-805.03a83.622,83.622,0,0,0,72.419-41.812L-551-9807v1706.5Z" transform="translate(1991 10052.5)"/><path class="b" d="M1218.949,102.694H1198.3V216.4h20.648Z" transform="translate(437.8 -495.801) rotate(90)"/><path class="b" d="M1218.949,102.694H1198.3V216.4h20.648Z" transform="translate(762.119 -417.098) rotate(90)"/><path class="b" d="M1218.949,102.694H1198.3V216.4h20.648Z" transform="translate(1156.239 263.902) rotate(90)"/><path class="c" d="M1218.949,102.694H1198.3V216.4h20.648Z" transform="translate(271.938 608.8) rotate(90)"/><path class="d" d="M1022.7,102.693h61.963v20.654H1022.7a31.077,31.077,0,0,0-31.082,31.082v20.763H970.968V154.429A51.739,51.739,0,0,1,1022.7,102.693Z" transform="translate(170.754 989.307)"/><path class="d" d="M1022.7,102.693h61.963v20.654H1022.7a31.077,31.077,0,0,0-31.082,31.082v20.763H970.968V154.429A51.739,51.739,0,0,1,1022.7,102.693Z" transform="translate(287.562 464.833) rotate(90)"/></g></svg>