<svg xmlns="http://www.w3.org/2000/svg" width="211.101" height="124.68" viewBox="0 0 211.101 124.68"><defs><style>.a{fill:#f1f1f1;}.b{fill:#2f2e41;}.c{fill:#ffb7b7;}.d{fill:#ffb8b8;}.e{fill:#cbcbcb;}.f{fill:#3c50ff;}.g,.h,.i{fill:#fff;}.h{font-size:11px;}.h,.i{font-family:SF Pro;font-weight:500;}.i{font-size:10px;}</style></defs><g transform="translate(-789.568 -2065.242)"><path class="a" d="M364.176,188.385a42.547,42.547,0,0,1-18.249,34.959,42.043,42.043,0,0,1-4.976,2.993c-.573.294-1.15.573-1.737.837-.529.242-1.061.47-1.6.687a42.756,42.756,0,0,1-21.143,2.82q-1.862-.22-3.676-.606l-.158-.033a41.616,41.616,0,0,1-7.4-2.3,42.606,42.606,0,1,1,58.94-39.355Z" transform="translate(510.61 1949.232)"/><path class="b" d="M379.92,233.654c-.037-.044-.077-.084-.117-.125a12.283,12.283,0,0,0-17.276-.176c-.026.022-.048.044-.07.066s-.055.051-.081.077a12.276,12.276,0,0,0-3.606,8.7V249.9a1.655,1.655,0,0,0,1.653,1.653h21.3a1.655,1.655,0,0,0,1.653-1.653v-7.712a12.247,12.247,0,0,0-3.456-8.539Z" transform="translate(460.403 1896.013)"/><ellipse class="c" cx="9.02" cy="9.02" rx="9.02" ry="9.02" transform="translate(822.952 2129.454)"/><path class="b" d="M386.236,244.7l-1.065-7.441a.932.932,0,0,0-.327-.584.962.962,0,0,0-.195-.121,18.625,18.625,0,0,0-16.438-.007.9.9,0,0,0-.2.129c-.022.018-.044.04-.066.062a.929.929,0,0,0-.257.555l-.712,7.452a.92.92,0,0,0,.235.705.91.91,0,0,0,.529.286.677.677,0,0,0,.151.015h1.807a.926.926,0,0,0,.834-.529l.782-1.675a.549.549,0,0,1,1.043.165l.154,1.234a.922.922,0,0,0,.911.8h11.91a.883.883,0,0,0,.444-.118.9.9,0,0,0,.463-.933Z" transform="translate(455.22 1893.01)"/><path class="c" d="M440.854,326.612l2.556,8.557a42.031,42.031,0,0,1-4.976,2.993c-.573.294-1.15.573-1.737.837l-2.648-11.352-1.028-4.4,6.611-.734Z" transform="translate(412.541 1837.408)"/><path class="c" d="M358.226,329.81l-.22,11.561-.1,5.116a41.618,41.618,0,0,1-7.4-2.3l.878-10.951.22-2.762Z" transform="translate(466.223 1832.788)"/><path class="b" d="M387.228,312.786l-6.64,1,.081,1.091.8,10.988a42.756,42.756,0,0,1-21.143,2.82q-1.862-.22-3.676-.606c.543-2.284,1.014-4.341.433-4.745a4.4,4.4,0,0,1-.5-.4c-2.707-2.582-1.708-8.41-1.708-8.41l-4.91.272-1.7.1s.734-11.752,4.04-11.752h4.04l19.464-1.836s5.509-1.836,6.978.735c.771,1.348,2.145,4.2,3.28,6.621,1.028,2.2,1.862,4.029,1.862,4.029Z" transform="translate(466.814 1851.233)"/><path class="a" d="M569.182,538.384a42.547,42.547,0,0,1-18.249,34.959c-.1.073-.209.147-.316.217q-.926.639-1.888,1.223-1.355.826-2.773,1.554c-.573.294-1.149.573-1.737.837-.147.066-.3.136-.448.2-1.025.455-2.071.87-3.136,1.238a41.949,41.949,0,0,1-8.583,2.027,42.7,42.7,0,0,1-5.472.349c-.922,0-1.84-.029-2.747-.088-.793-.051-1.579-.121-2.358-.217q-1.879-.226-3.709-.613c-.04-.007-.084-.018-.125-.026a41.635,41.635,0,0,1-7.4-2.3c-.65-.272-1.292-.555-1.924-.859q-1.2-.562-2.343-1.2a42.6,42.6,0,1,1,63.208-37.295Z" transform="translate(408.944 1599.234)"/><ellipse class="d" cx="9.513" cy="9.513" rx="9.513" ry="9.513" transform="translate(925.517 2129.092)"/><path class="e" d="M579.709,676.447q-1.878-.226-3.709-.613l1.157-26.031.165-.173,2.369-2.5h7.532l2.78,2.692.235.231,5.946,5.7,2.685,18.627a41.942,41.942,0,0,1-8.583,2.027,42.728,42.728,0,0,1-5.472.349c-.922,0-1.84-.029-2.747-.088C581.274,676.613,580.488,676.543,579.709,676.447Z" transform="translate(351.175 1503.467)"/><path class="b" d="M546.012,676.74q-1.2-.562-2.343-1.2c-.077-7.051-.129-11.734-.129-11.734l.9-.547.033-.015,10.169-6.177,2.134-3.467.011.125.628,7.308a127.341,127.341,0,0,1,4.117,19.725c-.793-.051-1.579-.121-2.358-.217-1.252-.151-2.49-.353-3.709-.613-.04-.007-.085-.018-.125-.026a41.612,41.612,0,0,1-7.4-2.3C547.286,677.328,546.644,677.045,546.012,676.74Z" transform="translate(372.428 1499.373)"/><path class="b" d="M621.948,678.47a41.95,41.95,0,0,1-8.583,2.027,33.526,33.526,0,0,1-.444-7.18c.793-12.681-1.036-19.718-.242-19.718l.4.316,4.991,3.944,6.57,2.409h0l4.521,1.656.8.294v.378c0,1.307.011,5.883.077,12.046q-1.355.827-2.773,1.553c-.573.294-1.149.573-1.737.837-.147.066-.3.136-.448.2Q623.547,677.916,621.948,678.47Z" transform="translate(327.643 1499.373)"/><path class="b" d="M568.1,594.239s.808-1.419.62-6.161,7.033-2.06,13.066-2.512,4.756,7.917,4.756,7.917.435-.5,1.367-4.537a13.186,13.186,0,0,0-1.184-8.064c-.623-4.244-3.982-2.884-3.982-2.884a1.761,1.761,0,0,1,1.307,1.976c-1.369-2.4-4.728-1.04-4.728-1.04-4.479-2.811-9.019.891-9.019.891-5.411,1.228-2.238,5.532-2.238,5.532C562.622,588.106,568.1,594.239,568.1,594.239Z" transform="translate(357.912 1547.342)"/><path class="b" d="M531.32,689.2c.14-3.228.2-5.31.129-5.6-.378-1.513,4.785-3.54,5.255-3.72l.033-.015,1.05.562.492,12.935q-1.2-.562-2.343-1.2A42.292,42.292,0,0,1,531.32,689.2Z" transform="translate(380.712 1482.757)"/><path class="b" d="M648.921,686.033q-1.355.826-2.773,1.553c-.573.294-1.15.573-1.737.837-.147.066-.3.136-.448.2L642.31,672.3l.966-.705.246.059h0a19.111,19.111,0,0,1,4.521,1.656,2.829,2.829,0,0,1,.8.672.817.817,0,0,1,.187.58c-.044.426.69,4.466,1.778,10.243Q649.883,685.449,648.921,686.033Z" transform="translate(308.551 1487.984)"/><path class="f" d="M9.709,0A9.709,9.709,0,1,1,0,9.709,9.709,9.709,0,0,1,9.709,0Z" transform="translate(822.743 2169.77)"/><path class="g" d="M108.474,227.036l-2.906-3.736,1.69-1.314,1.376,1.769,4.648-4.906,1.554,1.472Z" transform="translate(723.054 1956.541)"/><path class="f" d="M9.709,0A9.709,9.709,0,1,1,0,9.709,9.709,9.709,0,0,1,9.709,0Z" transform="translate(926.434 2170.505)"/><path class="g" d="M313.474,579.036l-2.906-3.736,1.69-1.315,1.376,1.769,4.648-4.906,1.554,1.472Z" transform="translate(621.794 1605.276)"/><path class="f" d="M458.355,274.707a19.722,19.722,0,1,1,10.244,17.3c-1.364.97-4.691,2.906-7.978,1.512l3.956-4.435A19.674,19.674,0,0,1,458.355,274.707Z" transform="translate(502.87 1810.251)"/><path class="f" d="M458.355,274.707a19.722,19.722,0,1,1,10.244,17.3c-1.364.97-4.691,2.906-7.978,1.512l3.956-4.435A19.674,19.674,0,0,1,458.355,274.707Z" transform="translate(396.271 1810.251)"/><text class="h" transform="translate(967.692 2088.97)"><tspan x="0" y="0">35.9°</tspan></text><text class="i" transform="translate(861.043 2088.97)"><tspan x="0" y="0">36.5°</tspan></text></g></svg>