<svg xmlns="http://www.w3.org/2000/svg" width="171.925" height="146.037" viewBox="0 0 171.925 146.037"><defs><style>.a{fill:#f2f2f2;}.b{fill:#fff;}.c{fill:#3f3d56;}.d{fill:#ffb8b8;}.e{fill:#2f2e41;}.f{fill:#3c50ff;}</style></defs><path class="a" d="M208.086,577.261c8.67,5.561,19.5,5.279,29.915,3.976,1.454-.182,2.9-.381,4.326-.589.009,0,.02,0,.029-.005.069-.01.137-.021.2-.028l.882-.131-.062.136-.2.422c.071-.142.142-.281.213-.422.021-.043.044-.085.065-.127,2.454-4.859,4.876-9.89,5.27-15.308.407-5.624-1.925-11.841-6.989-14.321a9.928,9.928,0,0,0-2.082-.743c-.3-.073-.6-.13-.906-.178a10.648,10.648,0,0,0-11.618,14.49c-4.4-4.049-4-11.024-2.871-16.9s2.523-12.414-.688-17.46a11.521,11.521,0,0,0-8-5c-.1-.016-.2-.032-.3-.045a15.54,15.54,0,0,0-11.043,2.556c-5.937,4.2-8.7,11.718-9.332,18.966C193.878,558.217,198.229,570.938,208.086,577.261Z" transform="translate(-193.863 -436.134)"/><path class="b" d="M264.4,559.129a26.417,26.417,0,0,0,2.222,7.335,22.938,22.938,0,0,0,3.87,5.617A29.389,29.389,0,0,0,282.2,579.6a42.3,42.3,0,0,0,10.419,2.2c1.454-.182,2.9-.381,4.326-.589.009,0,.02,0,.029-.005.069-.01.137-.021.2-.028l.882-.131-.062.136-.2.422c.071-.142.142-.281.213-.422.021-.043.044-.085.065-.128a23.175,23.175,0,0,1-3.8-30.371c-.3-.074-.6-.13-.906-.178a24.447,24.447,0,0,0-2.028,3.809,23.957,23.957,0,0,0-1.26,14.994,24.494,24.494,0,0,0,6.855,11.865c-.28,0-.563-.012-.839-.022a42.948,42.948,0,0,1-15.367-3.043,27.341,27.341,0,0,1-10.681-7.84,24.711,24.711,0,0,1-5.078-13.307,57.228,57.228,0,0,1,.787-15.559,65.032,65.032,0,0,1,4.654-15.158.468.468,0,0,0-.219-.606.4.4,0,0,0-.3-.045.346.346,0,0,0-.218.208c-.267.6-.528,1.2-.778,1.8a65.77,65.77,0,0,0-4.308,15.7A52.948,52.948,0,0,0,264.4,559.129Z" transform="translate(-248.485 -436.702)"/><path class="c" d="M483.916,136.856h-.8V114.879a12.72,12.72,0,0,0-12.72-12.72H423.832a12.72,12.72,0,0,0-12.72,12.72V235.446a12.72,12.72,0,0,0,12.72,12.72h46.562a12.72,12.72,0,0,0,12.72-12.72V152.5h.8Z" transform="translate(-364.801 -102.16)"/><path class="b" d="M484.117,117.918h-6.077a4.513,4.513,0,0,1-4.179,6.217H447.186a4.513,4.513,0,0,1-4.178-6.217h-5.677a9.5,9.5,0,0,0-9.5,9.5V247.808a9.5,9.5,0,0,0,9.5,9.5h46.786a9.5,9.5,0,0,0,9.5-9.5h0V127.417a9.5,9.5,0,0,0-9.5-9.5Z" transform="translate(-378.011 -114.61)"/><path class="a" d="M923.467,706.543c-3.374,2.431-7.747,2.553-11.973,2.254-.59-.042-1.176-.091-1.757-.143h-.012l-.083-.007-.358-.034.028.054.088.166-.095-.166-.029-.05a16.728,16.728,0,0,1-2.458-6.057c-.286-2.258.518-4.815,2.506-5.925a4.006,4.006,0,0,1,.823-.345c.119-.036.239-.065.361-.091a4.3,4.3,0,0,1,5,5.588c1.685-1.728,1.371-4.531.789-6.874s-1.287-4.949-.1-7.054a4.651,4.651,0,0,1,3.116-2.191l.12-.025a6.274,6.274,0,0,1,4.507.79c2.485,1.566,3.761,4.535,4.175,7.443C928.78,698.556,927.3,703.779,923.467,706.543Z" transform="translate(-756.404 -563.06)"/><path class="b" d="M931.84,699.5a10.664,10.664,0,0,1-.736,3.005,9.259,9.259,0,0,1-1.438,2.349,11.864,11.864,0,0,1-4.558,3.286,17.084,17.084,0,0,1-4.152,1.116c-.59-.042-1.176-.091-1.757-.143h-.012l-.083-.007-.358-.034.028.053.088.166-.095-.166-.029-.05a9.357,9.357,0,0,0,.871-12.327c.119-.036.239-.065.361-.091a9.877,9.877,0,0,1,.9,1.491,9.673,9.673,0,0,1,.834,6.017A9.889,9.889,0,0,1,919.2,709.1c.113-.008.227-.017.338-.027a17.34,17.34,0,0,0,6.129-1.561,11.038,11.038,0,0,0,4.135-3.393,9.976,9.976,0,0,0,1.757-5.475,23.106,23.106,0,0,0-.656-6.255,26.257,26.257,0,0,0-2.206-6.01.189.189,0,0,1,.075-.249.16.16,0,0,1,.12-.025.14.14,0,0,1,.092.079c.121.235.239.471.353.709a26.556,26.556,0,0,1,2.079,6.235A21.376,21.376,0,0,1,931.84,699.5Z" transform="translate(-765.866 -563.519)"/><path class="c" d="M362.215,796.187H190.71a.21.21,0,1,1,0-.42H362.215a.21.21,0,0,1,0,.42Z" transform="translate(-190.5 -650.165)"/><path class="d" d="M625.319,646.935h-2.573l-1.224-9.927h3.8Z" transform="translate(-491.051 -503.287)"/><path class="e" d="M606.835,680.793H611.8v3.125H603.71A3.125,3.125,0,0,1,606.835,680.793Z" transform="translate(-476.979 -537.881)"/><path class="d" d="M671.319,646.935h-2.573l-1.224-9.927h3.8Z" transform="translate(-527.395 -503.287)"/><path class="e" d="M652.835,680.793H657.8v3.125H649.71A3.125,3.125,0,0,1,652.835,680.793Z" transform="translate(-513.322 -537.881)"/><path class="d" d="M866.609,542.2a2.255,2.255,0,0,1-.433-3.431l-1.695-24.048,4.881.473.134,23.55a2.267,2.267,0,0,1-2.888,3.455Z" transform="translate(-722.999 -428.113)"/><path class="e" d="M814.741,647.128l-2.833-.135a.944.944,0,0,1-.9-.937l-.2-28.666a.945.945,0,0,1,1.08-.942l11.334,1.645a.939.939,0,0,1,.809.928l1.458,26.562a.945.945,0,0,1-.945.952h-3.054a.94.94,0,0,1-.933-.8l-1.884-11.98a.735.735,0,0,0-1.455.027l-1.5,12.512a.948.948,0,0,1-.938.832Z" transform="translate(-680.594 -508.481)"/><path class="f" d="M815.564,519.061a14.26,14.26,0,0,0-5.391-1.846.927.927,0,0,1-.641-.351.939.939,0,0,1-.2-.714l2.716-20.163a6.973,6.973,0,0,1,4.065-5.449,6.782,6.782,0,0,1,6.591.517q.14.093.274.19a6.965,6.965,0,0,1,2.653,7.258c-1.665,6.813-2.237,17.982-2.335,20.152a.938.938,0,0,1-.613.841,9.465,9.465,0,0,1-3.2.569A8,8,0,0,1,815.564,519.061Z" transform="translate(-679.424 -408.519)"/><path class="f" d="M866.915,515.792a.941.941,0,0,1-.39-.714l-.358-6.482a2.6,2.6,0,0,1,5.111-.824l1.571,5.795a.946.946,0,0,1-.665,1.159l-4.469,1.212A.941.941,0,0,1,866.915,515.792Z" transform="translate(-724.328 -421.108)"/><ellipse class="d" cx="5.156" cy="5.156" rx="5.156" ry="5.156" transform="translate(133.257 68.969)"/><path class="d" d="M753.069,506.892a2.6,2.6,0,0,1-1.612-.556l-8.772-6.92a2.164,2.164,0,0,1-.218.064,2.309,2.309,0,1,1,1.719-2.776h0a2.237,2.237,0,0,1,.048.3l8.918,5.145,2.219-1.278,2.458,3.219-3.253,2.318A2.6,2.6,0,0,1,753.069,506.892Z" transform="translate(-624.355 -412.473)"/><path class="f" d="M805.564,504.8a.941.941,0,0,1,.271-.767l4.59-4.591a2.6,2.6,0,0,1,4.024,3.257l-3.268,5.036a.946.946,0,0,1-1.307.278l-3.884-2.521A.941.941,0,0,1,805.564,504.8Z" transform="translate(-676.445 -415.445)"/><path class="e" d="M826.007,433.7a.834.834,0,0,0,1.195.069,9.325,9.325,0,0,0,2.66-3.474,6.188,6.188,0,0,0,.006-5.045,6.963,6.963,0,0,0-2.958-2.73,4.827,4.827,0,0,0-1.437-.608,1.888,1.888,0,0,0-1.5.3,1.584,1.584,0,0,0-.6,1.517,4.692,4.692,0,0,0-2.058-1.544,2.386,2.386,0,0,0-1.586-.106,2.9,2.9,0,0,0-1.6,1.8,4.017,4.017,0,0,0-.264,1.945,2.337,2.337,0,0,0,.9,1.61,2.523,2.523,0,0,0,2.089.19,16.367,16.367,0,0,1,2.1-.586,1.98,1.98,0,0,1,1.937.741,3.588,3.588,0,0,1,.433,1.608l.319,2.939a3.893,3.893,0,0,0,.268,1.226A.682.682,0,0,0,826.007,433.7Z" transform="translate(-686.145 -354.748)"/><g transform="translate(59.379 49.085)"><rect class="f" width="5.039" height="5.039" transform="translate(5.039 5.039)"/><rect class="f" width="5.039" height="5.039" transform="translate(5.039 37.789)"/><path class="f" d="M1634.62,969.1V953.98H1619.5v2.52h-2.52v-2.519h-5.038V956.5h-2.518v-2.519h-2.52V956.5h-2.516v-2.519h-17.635V969.1h5.042v2.515h-2.52v2.52h2.52v2.518h-2.52v2.519h0v2.518h0v2.518h0v2.519h2.52v-2.519h2.517v2.519h2.52v-2.519h0v-2.519h-2.517V979.17h2.517v-2.52h-2.517v-2.519h-2.52v-2.518h5.036V969.1h2.518v2.515h-2.517v2.519h0v2.519h2.517v2.518h-2.517v2.52h7.555v2.518h-5.038v2.52h7.558v-2.519h5.036v-2.518h5.036v2.518h-2.52v2.519h-5.036v2.519h0v2.518h0v2.518h-2.516v-2.519h-2.52v-2.519h-2.517v-2.516h-15.118v15.118h15.118v-7.564h2.517V996.8h2.516v2.518h-2.516v2.52h2.52v-2.519h2.516V996.8h2.518v2.518h2.518v2.519h2.52v-2.519h2.52v2.519h2.52v-2.519h2.517v2.519h2.52v-2.519h2.518v2.519h5.038v-2.52H1632.1V996.8h2.518v-2.52h-5.036v-2.518h5.036v-2.519h0v-2.519h-7.556v-2.519h-2.517v-2.518h5.035v2.518h5.038v-2.52H1632.1V979.17h2.518v-2.52H1632.1v-2.518h2.518v-2.52H1632.1V969.1Zm-40.305,7.554v2.518H1591.8v-2.518Zm27.707-20.152H1632.1v10.079h-10.078Zm2.517,20.151h-2.517v-2.518h2.517Zm-2.517,10.075h0v2.519h5.036v2.518h-2.52v2.519h-2.517v-2.519h-2.52v-2.518h0v-2.518h0v-2.518h2.52Zm-2.52-5.038V979.17h2.52v2.518Zm2.52-12.59v2.515h0v2.518h-2.52v2.519h-5.038v-2.519h-5.038v-2.518h2.52v-2.519h2.517v2.519h5.039V969.1Zm-17.631-5.041h5.036v-2.519h2.518v2.518h0v2.518h-2.518v2.519h-2.516v-2.519h-2.52Zm10.072-2.52h-2.517v-2.518h2.517Zm5.039-2.518v5.037h-2.52v2.519h0v2.518h-2.518v-2.518h0v-2.518h0v-2.518h2.518v-2.519Zm-15.112-2.519v2.519h2.516v2.518h-5.033V956.5Zm-15.115,0h10.079v10.079h-10.079Zm12.6,12.6v0h5.033v2.518h-2.516v2.519h-5.035v-2.518h2.517V969.1Zm5.036,12.59V979.17h0v-2.518h5.035v2.518h-2.518v2.519Zm-7.556,17.639h-10.079V989.249h10.079Zm17.628-2.526h-5.036v-2.518h2.518v-2.52h-2.518v-2.518h5.036v2.518h0v2.519h2.52V996.8Zm10.076,2.519h-2.517V996.8h2.517Zm0-2.519v-2.518h2.518V996.8Zm0-17.632h-2.517v-2.518h2.517v-2.519h2.518v2.518h0v2.518Zm2.518-7.557h-2.518V969.1h2.518Z" transform="translate(-1586.756 -953.98)"/><rect class="f" width="5.039" height="5.039" transform="translate(37.786 5.039)"/><rect class="f" width="2.52" height="2.52" transform="translate(0 22.674)"/><rect class="f" width="2.52" height="2.52" transform="translate(0 27.71)"/></g></svg>