<svg xmlns="http://www.w3.org/2000/svg" xmlns:xlink="http://www.w3.org/1999/xlink" width="234.971" height="46.879" viewBox="0 0 234.971 46.879"><defs><style>.a{isolation:isolate;}.b{fill:url(#a);}.c{fill:#bfc0c0;}.d{fill:#fff;}.e{fill:none;stroke:#3c50ff;stroke-miterlimit:10;stroke-width:16px;}.f{fill:#3c50ff;}</style><linearGradient id="a" y1="0.5" x2="1" y2="0.5" gradientUnits="objectBoundingBox"><stop offset="0" stop-color="#2debd7"/><stop offset="1" stop-color="#3c50ff"/></linearGradient></defs><g class="a" transform="translate(-302.692 -586.306)"><g transform="translate(302.692 586.306)"><path class="b" d="M322.487,586.306l-19.8,21.19,12.882,23,20.038-1.122,23.577-8.779-12.881-23Z" transform="translate(-302.692 -586.306)"/><g transform="translate(11.27 5.359)"><path class="c" d="M356.576,594.831H332.6l-11.985,20.76,10.155,17.591,1.83,3.168h23.973l6.724-11.644-2.652.986-5.112,8.856H333.644l-.855-1.48L322.7,615.591l10.945-18.958h21.891l10.946,18.958-2.645,4.58L364.862,622l3.7-6.411Z" transform="translate(-320.618 -594.831)"/></g></g><g transform="translate(373.239 592.905)"><g transform="translate(0 6.258)"><path class="d" d="M466.36,609.242a10.413,10.413,0,0,0-6.753-2.484,10.775,10.775,0,0,0,0,21.547,10.411,10.411,0,0,0,6.7-2.441l.5,1.864h4.243v-20.42h-4.084Zm-6.237,13.884a5.595,5.595,0,1,1,5.523-5.594A5.559,5.559,0,0,1,460.123,623.126Z" transform="translate(-427.58 -606.758)"/><g transform="translate(0 0.55)"><path class="d" d="M422.044,607.632H415.6l6.37,9.819-7.057,10.6h6.334l4.148-6.668,3.924,6.668h6.448Z" transform="translate(-414.909 -607.632)"/><path class="d" d="M442.189,607.632h-8.9l4.295,6.807Z" transform="translate(-421.733 -607.632)"/></g><g transform="translate(48.772 0.55)"><rect class="d" width="5.634" height="20.42"/><path class="d" d="M503.84,607.632l4.42,7.005L513,607.632Z" transform="translate(-496.704 -607.632)"/></g><path class="d" d="M528.567,606.82a10.759,10.759,0,1,0,9.747,14.994h-5.931a5.186,5.186,0,0,1-3.887,1.694,5.127,5.127,0,0,1-4.944-4.046H539a10.937,10.937,0,0,0,.172-1.883A10.681,10.681,0,0,0,528.567,606.82Zm-5.066,8.862a5.233,5.233,0,0,1,10.255,0Z" transform="translate(-453.177 -606.781)"/></g><path class="e" d="M541.61,599.219" transform="translate(-461.958 -597.7)"/><g transform="translate(91.291 0)"><path class="f" d="M618.4,617.9a6.465,6.465,0,1,1-12.931,0V607.692h-4.293V617.9a10.759,10.759,0,1,0,21.517,0V607.692H618.4Z" transform="translate(-575.367 -600.846)"/><path class="f" d="M560.123,624.031h4.293V596.8h-4.293Z" transform="translate(-560.123 -596.803)"/><path class="f" d="M574.683,606.822h-4.316v4.293h4.316a6.465,6.465,0,0,1,6.465,6.464V627.75h4.293V617.579A10.757,10.757,0,0,0,574.683,606.822Z" transform="translate(-563.927 -600.523)"/><path class="f" d="M652.987,603.1h-4.316v4.293h4.316a6.464,6.464,0,1,1-6.464,6.464V596.8H642.23v17.056A10.757,10.757,0,1,0,652.987,603.1Z" transform="translate(-590.612 -596.803)"/></g></g></g></svg>